<?xml version="1.0" encoding="utf-8" ?><svg version="1.1" xmlns="http://www.w3.org/2000/svg" xmlns:xlink="http://www.w3.org/1999/xlink" width="300" height="300" viewBox="0 0 300 300"><g transform="matrix(1,0,0,1,150,150)">
<path d="M57.5746,147.198 C107.138,147.198 147.446,106.89 147.446,57.3265 L147.446,-57.3265 C147.446,-106.89 107.138,-147.198 57.5746,-147.198 L-57.0785,-147.198 C-106.642,-147.198 -146.95,-106.89 -146.95,-57.3265 L-146.95,57.3265 C-146.95,106.89 -106.642,147.198 -57.0785,147.198 L57.5746,147.198 Z M2.84217e-14,72.2661 C-39.9365,72.2661 -72.2661,39.9365 -72.2661,5.68434e-14 C-72.2661,-39.9365 -39.9365,-72.2661 2.84217e-14,-72.2661 C39.9365,-72.2661 72.2661,-39.9365 72.2661,5.68434e-14 C72.2661,39.9365 39.9365,72.2661 2.84217e-14,72.2661 Z" fill="#555" /></g></svg>
