<?xml version="1.0" encoding="utf-8" ?>
<!-- Generator: Assembly 1.0 - http://assemblyapp.co -->
<svg version="1.1" xmlns="http://www.w3.org/2000/svg" xmlns:xlink="http://www.w3.org/1999/xlink" width="300" height="300" viewBox="0 0 300 300">
	<g id="widget" transform="matrix(1,0,0,1,150,150)">
		<path d="M57.3265,147.198 C106.89,147.198 147.198,106.89 147.198,57.3265 L147.198,-57.3265 C147.198,-106.89 106.89,-147.198 57.3265,-147.198 L-57.3265,-147.198 C-106.89,-147.198 -147.198,-106.89 -147.198,-57.3265 L-147.198,57.3265 C-147.198,106.89 -106.89,147.198 -57.3265,147.198 L57.3265,147.198 Z M-61.1439,9.43391e-07 C-94.9339,9.43391e-07 -122.288,-27.3538 -122.288,-61.1439 C-122.288,-94.9339 -94.9339,-122.288 -61.1439,-122.288 C-27.3539,-122.288 1.88863e-06,-94.9339 1.88863e-06,-61.1439 C1.88863e-06,-27.3538 -27.3539,9.43391e-07 -61.1439,9.43391e-07 Z M61.1439,122.288 C27.3538,122.288 0,94.9339 0,61.1439 C0,27.3538 27.3538,0 61.1439,0 C94.9339,0 122.288,27.3538 122.288,61.1439 C122.288,94.9339 94.9339,122.288 61.1439,122.288 Z" fill="#4d4d4d" fill-opacity="1" />
	</g>
</svg>