<?xml version="1.0" encoding="utf-8" ?>
<!-- Generator: Assembly 1.0 - http://assemblyapp.co -->
<svg version="1.1" xmlns="http://www.w3.org/2000/svg" xmlns:xlink="http://www.w3.org/1999/xlink" width="300" height="300" viewBox="0 0 300 300">
	<g id="widget" transform="matrix(1,0,0,1,150,150)">
		<path d="M57.5745,147.198 L-57.0785,147.198 C-106.642,147.198 -146.95,106.89 -146.95,57.3265 L-146.95,-57.3265 C-146.95,-106.89 -106.642,-147.198 -57.0785,-147.198 L57.5745,-147.198 C107.138,-147.198 147.446,-106.89 147.446,-57.3265 L147.446,57.3265 C147.446,106.89 107.138,147.198 57.5745,147.198 Z" fill="#4d4d4d" fill-opacity="1" />
		<path d="M-52.6683,1.42109e-14 L-52.6683,1.42109e-14 C-81.7745,1.42109e-14 -105.337,-23.5621 -105.337,-52.6683 L-105.337,-52.6683 C-105.337,-81.7745 -81.7745,-105.337 -52.6683,-105.337 L-52.6683,-105.337 C-23.5621,-105.337 -1.42109e-14,-81.7745 -1.42109e-14,-52.6683 L-1.42109e-14,-52.6683 C-2.55795e-13,-23.5621 -23.5621,1.42109e-14 -52.6683,1.42109e-14 Z" fill="#f9f9f9" fill-opacity="1" />
		<path d="M52.6683,105.337 L52.6683,105.337 C23.5621,105.337 -3.26128e-15,81.7745 -3.26128e-15,52.6683 L-3.26128e-15,52.6683 C-3.26128e-15,23.5621 23.5621,1.50296e-14 52.6683,1.50296e-14 L52.6683,1.50296e-14 C81.7745,1.50296e-14 105.337,23.5621 105.337,52.6683 L105.337,52.6683 C105.337,81.7745 81.7745,105.337 52.6683,105.337 Z" fill="#f9f9f9" fill-opacity="1" />
	</g>
</svg>