<?xml version="1.0" encoding="utf-8" ?>
<!-- Generator: Assembly 1.0 - http://assemblyapp.co -->
<svg version="1.1" xmlns="http://www.w3.org/2000/svg" xmlns:xlink="http://www.w3.org/1999/xlink" width="300" height="300" viewBox="0 0 300 300">
	<rect x="0" y="0" width="300" height="300" fill="#ffffff" />
	<g id="widget" transform="matrix(1,0,0,1,150,150)">
		<path d="M57.3265,147.198 L-57.3265,147.198 C-106.89,147.198 -147.198,106.89 -147.198,57.3265 L-147.198,-57.3265 C-147.198,-106.89 -106.89,-147.198 -57.3265,-147.198 L57.3265,-147.198 C106.89,-147.198 147.198,-106.89 147.198,-57.3265 L147.198,57.3265 C147.198,106.89 106.89,147.198 57.3265,147.198 Z" fill="#4d4d4d" fill-opacity="1" />
		<path d="M-61.1439,9.43391e-07 L-61.1439,9.43391e-07 C-94.9339,9.43391e-07 -122.288,-27.3538 -122.288,-61.1439 L-122.288,-61.1439 C-122.288,-94.9339 -94.9339,-122.288 -61.1439,-122.288 L-61.1439,-122.288 C-27.3539,-122.288 1.88863e-06,-94.9339 1.88863e-06,-61.1439 L1.88863e-06,-61.1439 C1.88863e-06,-27.3538 -27.3539,9.43391e-07 -61.1439,9.43391e-07 Z" fill="#06caff" fill-opacity="1" />
		<path d="M61.1439,122.288 L61.1439,122.288 C27.3538,122.288 -1.4308e-14,94.9339 -1.4308e-14,61.1439 L-1.4308e-14,61.1439 C-1.4308e-14,27.3538 27.3538,-8.59035e-15 61.1439,-8.59035e-15 L61.1439,-8.59035e-15 C94.9339,-8.59035e-15 122.288,27.3538 122.288,61.1439 L122.288,61.1439 C122.288,94.9339 94.9339,122.288 61.1439,122.288 Z" fill="#06caff" fill-opacity="1" />
	</g>
</svg>