<?xml version="1.0" encoding="utf-8" ?>
<!-- Generator: Assembly 1.0 - http://assemblyapp.co -->
<svg version="1.1" xmlns="http://www.w3.org/2000/svg" xmlns:xlink="http://www.w3.org/1999/xlink" width="300" height="300" viewBox="0 0 300 300">
	<g id="widget" transform="matrix(1,0,0,1,150,150)">
		<path d="M57.5745,147.198 C107.138,147.198 147.446,106.89 147.446,57.3265 L147.446,-57.3265 C147.446,-106.89 107.138,-147.198 57.5745,-147.198 L-57.0785,-147.198 C-106.642,-147.198 -146.95,-106.89 -146.95,-57.3265 L-146.95,57.3265 C-146.95,106.89 -106.642,147.198 -57.0785,147.198 L57.5745,147.198 Z M-71.16,-39.9598 C-92.0091,-39.9598 -108.887,-56.8375 -108.887,-77.6865 C-108.887,-98.5356 -92.0091,-115.413 -71.16,-115.413 C-50.311,-115.413 -33.4333,-98.5356 -33.4333,-77.6865 C-33.4333,-56.8375 -50.311,-39.9598 -71.16,-39.9598 Z M0,37.7268 C-20.849,37.7268 -37.7268,20.849 -37.7268,-5.83226e-07 C-37.7268,-20.849 -20.849,-37.7268 0,-37.7268 C20.849,-37.7268 37.7268,-20.849 37.7268,-5.83226e-07 C37.7268,20.849 20.849,37.7268 0,37.7268 Z M75.4536,113.18 C54.6046,113.18 37.7268,96.3026 37.7268,75.4536 C37.7268,54.6046 54.6046,37.7268 75.4536,37.7268 C96.3026,37.7268 113.18,54.6046 113.18,75.4536 C113.18,96.3026 96.3026,113.18 75.4536,113.18 Z" fill="#4d4d4d" fill-opacity="1" />
	</g>
</svg>