<?xml version="1.0" encoding="utf-8" ?>
<!-- Generator: Assembly 1.0 - http://assemblyapp.co -->
<svg version="1.1" xmlns="http://www.w3.org/2000/svg" xmlns:xlink="http://www.w3.org/1999/xlink" width="300" height="300" viewBox="0 0 300 300">
	<g id="widget" transform="matrix(1,0,0,1,150,150)">
		<path d="M57.5745,147.198 L-57.0785,147.198 C-106.642,147.198 -146.95,106.89 -146.95,57.3265 L-146.95,-57.3265 C-146.95,-106.89 -106.642,-147.198 -57.0785,-147.198 L57.5745,-147.198 C107.138,-147.198 147.446,-106.89 147.446,-57.3265 L147.446,57.3265 C147.446,106.89 107.138,147.198 57.5745,147.198 Z" fill="#4d4d4d" fill-opacity="1" />
		<path d="M-61.2525,121.15 L-61.2525,121.15 C-87.1686,121.15 -108.148,100.17 -108.148,74.2542 L-108.148,74.2542 C-108.148,48.3382 -87.1686,27.3585 -61.2525,27.3585 L-61.2525,27.3585 C-35.3365,27.3585 -14.3568,48.3382 -14.3568,74.2542 L-14.3568,74.2542 C-14.3568,100.17 -35.3365,121.15 -61.2525,121.15 Z" fill="#f9f9f9" fill-opacity="1" />
		<path d="M63.2266,121.15 L63.2266,121.15 C37.3106,121.15 16.3309,100.17 16.3309,74.2542 L16.3309,74.2542 C16.3309,48.3382 37.3106,27.3585 63.2266,27.3585 L63.2266,27.3585 C89.1427,27.3585 110.122,48.3382 110.122,74.2542 L110.122,74.2542 C110.122,100.17 89.1427,121.15 63.2266,121.15 Z" fill="#f9f9f9" fill-opacity="1" />
		<path d="M63.2266,-23.5413 L63.2266,-23.5413 C37.3106,-23.5413 16.3309,-44.5209 16.3309,-70.437 L16.3309,-70.437 C16.3309,-96.353 37.3106,-117.333 63.2266,-117.333 L63.2266,-117.333 C89.1427,-117.333 110.122,-96.353 110.122,-70.437 L110.122,-70.437 C110.122,-44.5209 89.1427,-23.5413 63.2266,-23.5413 Z" fill="#f9f9f9" fill-opacity="1" />
		<path d="M-61.2525,-23.5413 L-61.2525,-23.5413 C-87.1686,-23.5413 -108.148,-44.5209 -108.148,-70.437 L-108.148,-70.437 C-108.148,-96.353 -87.1686,-117.333 -61.2525,-117.333 L-61.2525,-117.333 C-35.3365,-117.333 -14.3568,-96.353 -14.3568,-70.437 L-14.3568,-70.437 C-14.3568,-44.5209 -35.3365,-23.5413 -61.2525,-23.5413 Z" fill="#f9f9f9" fill-opacity="1" />
	</g>
</svg>