<?xml version="1.0" encoding="utf-8" ?>
<!-- Generator: Assembly 1.0 - http://assemblyapp.co -->
<svg version="1.1" xmlns="http://www.w3.org/2000/svg" xmlns:xlink="http://www.w3.org/1999/xlink" width="300" height="300" viewBox="0 0 300 300">
	<g id="widget" transform="matrix(1,0,0,1,150,150)">
		<path d="M57.3265,147.198 C106.89,147.198 147.198,106.89 147.198,57.3265 L147.198,-57.3265 C147.198,-106.89 106.89,-147.198 57.3265,-147.198 L-57.3265,-147.198 C-106.89,-147.198 -147.198,-106.89 -147.198,-57.3265 L-147.198,57.3265 C-147.198,106.89 -106.89,147.198 -57.3265,147.198 L57.3265,147.198 Z M-65.4189,-8.10557 C-95.5293,-8.10557 -119.904,-32.4807 -119.904,-62.5912 C-119.904,-92.7016 -95.5293,-117.077 -65.4189,-117.077 C-35.3084,-117.077 -10.9333,-92.7016 -10.9333,-62.5912 C-10.9333,-32.4807 -35.3084,-8.10557 -65.4189,-8.10557 Z M-65.4189,122.134 C-95.5293,122.134 -119.904,97.7586 -119.904,67.6482 C-119.904,37.5377 -95.5293,13.1626 -65.4189,13.1626 C-35.3084,13.1626 -10.9333,37.5377 -10.9333,67.6482 C-10.9333,97.7586 -35.3084,122.134 -65.4189,122.134 Z M65.8797,-8.10557 C35.7692,-8.10557 11.3941,-32.4807 11.3941,-62.5912 C11.3941,-92.7016 35.7692,-117.077 65.8797,-117.077 C95.9901,-117.077 120.365,-92.7016 120.365,-62.5912 C120.365,-32.4807 95.9901,-8.10557 65.8797,-8.10557 Z M65.8797,122.134 C35.7692,122.134 11.3941,97.7586 11.3941,67.6482 C11.3941,37.5377 35.7692,13.1626 65.8797,13.1626 C95.9901,13.1626 120.365,37.5377 120.365,67.6482 C120.365,97.7586 95.9901,122.134 65.8797,122.134 Z" fill="#4d4d4d" fill-opacity="1" />
	</g>
</svg>