<?xml version="1.0" encoding="utf-8" ?>
<!-- Generator: Assembly 1.0 - http://assemblyapp.co -->
<svg version="1.1" xmlns="http://www.w3.org/2000/svg" xmlns:xlink="http://www.w3.org/1999/xlink" width="300" height="300" viewBox="0 0 300 300">
	<rect x="0" y="0" width="300" height="300" fill="#ffffff" />
	<g id="widget" transform="matrix(1,0,0,1,150,150)">
		<path d="M57.3265,150 C106.89,150 147.198,109.692 147.198,60.1287 L147.198,-54.5243 C147.198,-104.088 106.89,-144.396 57.3265,-144.396 L-57.3265,-144.396 C-106.89,-144.396 -147.198,-104.088 -147.198,-54.5243 L-147.198,60.1287 C-147.198,109.692 -106.89,150 -57.3265,150 L57.3265,150 Z M-68.4146,-15.2103 C-95.7146,-15.2103 -117.815,-37.3103 -117.815,-64.6103 C-117.815,-91.9103 -95.7146,-114.01 -68.4146,-114.01 C-41.1146,-114.01 -19.0146,-91.9103 -19.0146,-64.6103 C-19.0146,-37.3103 -41.1146,-15.2103 -68.4146,-15.2103 Z M-68.4146,117.88 C-95.7146,117.88 -117.815,95.7799 -117.815,68.4799 C-117.815,41.1799 -95.7146,19.0799 -68.4146,19.0799 C-41.1146,19.0799 -19.0146,41.1799 -19.0146,68.4799 C-19.0146,95.7799 -41.1146,117.88 -68.4146,117.88 Z M70.7597,117.88 C43.4597,117.88 21.3597,95.7799 21.3597,68.4799 C21.3597,41.1799 43.4597,19.0799 70.7597,19.0799 C98.0597,19.0799 120.16,41.1799 120.16,68.4799 C120.16,95.7799 98.0597,117.88 70.7597,117.88 Z M70.7597,-15.2103 C43.4597,-15.2103 21.3597,-37.3103 21.3597,-64.6103 C21.3597,-91.9103 43.4597,-114.01 70.7597,-114.01 C98.0597,-114.01 120.16,-91.9103 120.16,-64.6103 C120.16,-37.3103 98.0597,-15.2103 70.7597,-15.2103 Z" fill="#4d4d4d" fill-opacity="1" />
	</g>
</svg>