<svg xmlns="http://www.w3.org/2000/svg" width="300" height="300"><path d="M207.6 297.2H93c-49.6 0-90-40.3-90-90V92.8c0-49.6 40.4-90 90-90h114.6c49.5 0 89.8 40.4 89.8 90v114.6c0 49.6-40.3 90-89.8 90z" fill="#4d4d4d"/><path d="M88.7 271c-26 0-46.8-20.8-46.8-46.7 0-26 20.8-47 46.7-47 26 0 47 21 47 47s-21 46.8-47 46.8zM213.2 271c-26 0-47-20.8-47-46.7 0-26 21-47 47-47s47 21 47 47-21 46.8-47 46.8zM213.2 126.5c-26 0-47-21-47-47s21-46.8 47-46.8 47 21 47 47c0 25.8-21 46.8-47 46.8zM88.7 126.5c-26 0-46.8-21-46.8-47s20.8-46.8 46.7-46.8c26 0 47 21 47 47 0 25.8-21 46.8-47 46.8z" fill="#f9f9f9"/></svg>