<?xml version="1.0" encoding="utf-8" ?>
<!-- Generator: Assembly 1.0 - http://assemblyapp.co -->
<svg version="1.1" xmlns="http://www.w3.org/2000/svg" xmlns:xlink="http://www.w3.org/1999/xlink" width="300" height="300" viewBox="0 0 300 300">
	<g id="widget" transform="matrix(1,0,0,1,150,150)">
		<path d="M57.5745,147.198 C107.138,147.198 147.446,106.89 147.446,57.3265 L147.446,-57.3265 C147.446,-106.89 107.138,-147.198 57.5745,-147.198 L-57.0785,-147.198 C-106.642,-147.198 -146.95,-106.89 -146.95,-57.3265 L-146.95,57.3265 C-146.95,106.89 -106.642,147.198 -57.0785,147.198 L57.5745,147.198 Z M-61.2525,37.607 C-82.0353,37.607 -98.8595,20.7828 -98.8595,-5.81374e-07 C-98.8595,-20.7828 -82.0353,-37.607 -61.2525,-37.607 C-40.4697,-37.607 -23.6455,-20.7828 -23.6455,-5.81374e-07 C-23.6455,20.7828 -40.4697,37.607 -61.2525,37.607 Z M57.8611,130.046 C37.0783,130.046 20.2541,113.222 20.2541,92.4388 C20.2541,71.656 37.0783,54.8318 57.8611,54.8318 C78.6439,54.8318 95.4681,71.656 95.4681,92.4388 C95.4681,113.222 78.6439,130.046 57.8611,130.046 Z M57.8611,35.3232 C37.0783,35.3232 20.2541,18.499 20.2541,-2.28383 C20.2541,-23.0666 37.0783,-39.8908 57.8611,-39.8908 C78.6439,-39.8908 95.4681,-23.0666 95.4681,-2.28383 C95.4681,18.499 78.6439,35.3232 57.8611,35.3232 Z M-61.2525,130.046 C-82.0353,130.046 -98.8595,113.222 -98.8595,92.4388 C-98.8595,71.656 -82.0353,54.8318 -61.2525,54.8318 C-40.4697,54.8318 -23.6455,71.656 -23.6455,92.4388 C-23.6455,113.222 -40.4697,130.046 -61.2525,130.046 Z M57.8611,-53.8864 C37.0783,-53.8864 20.2541,-70.7106 20.2541,-91.4934 C20.2541,-112.276 37.0783,-129.1 57.8611,-129.1 C78.6439,-129.1 95.4681,-112.276 95.4681,-91.4934 C95.4681,-70.7106 78.6439,-53.8864 57.8611,-53.8864 Z M-61.2525,-53.8864 C-82.0353,-53.8864 -98.8595,-70.7106 -98.8595,-91.4934 C-98.8595,-112.276 -82.0353,-129.1 -61.2525,-129.1 C-40.4697,-129.1 -23.6455,-112.276 -23.6455,-91.4934 C-23.6455,-70.7106 -40.4697,-53.8864 -61.2525,-53.8864 Z" fill="#4d4d4d" fill-opacity="1" />
	</g>
</svg>