<?xml version="1.0" encoding="utf-8" ?>
<!-- Generator: Assembly 1.0 - http://assemblyapp.co -->
<svg version="1.1" xmlns="http://www.w3.org/2000/svg" xmlns:xlink="http://www.w3.org/1999/xlink" width="300" height="300" viewBox="0 0 300 300">
	<g id="widget" transform="matrix(1,0,0,1,150,150)">
		<path d="M57.3265,147.198 C106.89,147.198 147.198,106.89 147.198,57.3265 L147.198,-57.3265 C147.198,-106.89 106.89,-147.198 57.3265,-147.198 L-57.3265,-147.198 C-106.89,-147.198 -147.198,-106.89 -147.198,-57.3265 L-147.198,57.3265 C-147.198,106.89 -106.89,147.198 -57.3265,147.198 L57.3265,147.198 Z M-65.4189,-43.2574 C-85.8163,-43.2574 -102.329,-59.7697 -102.329,-80.1671 C-102.329,-100.565 -85.8163,-117.077 -65.4189,-117.077 C-45.0214,-117.077 -28.5092,-100.565 -28.5092,-80.1671 C-28.5092,-59.7697 -45.0214,-43.2574 -65.4189,-43.2574 Z M-65.4189,36.9097 C-85.8163,36.9097 -102.329,20.3974 -102.329,-5.70594e-07 C-102.329,-20.3974 -85.8163,-36.9097 -65.4189,-36.9097 C-45.0214,-36.9097 -28.5092,-20.3974 -28.5092,-5.70594e-07 C-28.5092,20.3974 -45.0214,36.9097 -65.4189,36.9097 Z M66.68,-43.2574 C46.2826,-43.2574 29.7703,-59.7697 29.7703,-80.1671 C29.7703,-100.565 46.2826,-117.077 66.68,-117.077 C87.0774,-117.077 103.59,-100.565 103.59,-80.1671 C103.59,-59.7697 87.0774,-43.2574 66.68,-43.2574 Z M66.68,36.9097 C46.2826,36.9097 29.7703,20.3974 29.7703,-5.70594e-07 C29.7703,-20.3974 46.2826,-36.9097 66.68,-36.9097 C87.0774,-36.9097 103.59,-20.3974 103.59,-5.70594e-07 C103.59,20.3974 87.0774,36.9097 66.68,36.9097 Z M66.68,122.134 C46.2826,122.134 29.7703,105.622 29.7703,85.2241 C29.7703,64.8267 46.2826,48.3144 66.68,48.3144 C87.0774,48.3144 103.59,64.8267 103.59,85.2241 C103.59,105.622 87.0774,122.134 66.68,122.134 Z M-65.4189,122.134 C-85.8163,122.134 -102.329,105.622 -102.329,85.2241 C-102.329,64.8267 -85.8163,48.3144 -65.4189,48.3144 C-45.0214,48.3144 -28.5092,64.8267 -28.5092,85.2241 C-28.5092,105.622 -45.0214,122.134 -65.4189,122.134 Z" fill="#4d4d4d" fill-opacity="1" />
	</g>
</svg>