<?xml version="1.0" encoding="utf-8" ?>
<!-- Generator: Assembly 1.0 - http://assemblyapp.co -->
<svg version="1.1" xmlns="http://www.w3.org/2000/svg" xmlns:xlink="http://www.w3.org/1999/xlink" width="300" height="300" viewBox="0 0 300 300">
	<rect x="0" y="0" width="300" height="300" fill="#ffffff" />
	<g id="widget" transform="matrix(1,0,0,1,150,150)">
		<path d="M54.5243,150 C104.088,150 144.396,109.692 144.396,60.1287 L144.396,-54.5243 C144.396,-104.088 104.088,-144.396 54.5243,-144.396 L-60.1287,-144.396 C-109.692,-144.396 -150,-104.088 -150,-54.5243 L-150,60.1287 C-150,109.692 -109.692,150 -60.1287,150 L54.5243,150 Z M-64.3028,40.4092 C-85.0856,40.4092 -101.91,23.585 -101.91,2.80221 C-101.91,-17.9806 -85.0856,-34.8048 -64.3028,-34.8048 C-43.52,-34.8048 -26.6958,-17.9806 -26.6958,2.80221 C-26.6958,23.585 -43.52,40.4092 -64.3028,40.4092 Z M54.8109,132.848 C34.028,132.848 17.2039,116.024 17.2039,95.241 C17.2039,74.4582 34.028,57.634 54.8109,57.634 C75.5937,57.634 92.4179,74.4582 92.4179,95.241 C92.4179,116.024 75.5937,132.848 54.8109,132.848 Z M54.8109,38.1254 C34.028,38.1254 17.2039,21.3012 17.2039,0.518389 C17.2039,-20.2644 34.028,-37.0886 54.8109,-37.0886 C75.5937,-37.0886 92.4179,-20.2644 92.4179,0.518389 C92.4179,21.3012 75.5937,38.1254 54.8109,38.1254 Z M-64.3028,132.848 C-85.0856,132.848 -101.91,116.024 -101.91,95.241 C-101.91,74.4582 -85.0856,57.634 -64.3028,57.634 C-43.52,57.634 -26.6958,74.4582 -26.6958,95.241 C-26.6958,116.024 -43.52,132.848 -64.3028,132.848 Z M54.8109,-51.0842 C34.028,-51.0842 17.2039,-67.9084 17.2039,-88.6912 C17.2039,-109.474 34.028,-126.298 54.8109,-126.298 C75.5937,-126.298 92.4179,-109.474 92.4179,-88.6912 C92.4179,-67.9084 75.5937,-51.0842 54.8109,-51.0842 Z M-64.3028,-51.0842 C-85.0856,-51.0842 -101.91,-67.9084 -101.91,-88.6912 C-101.91,-109.474 -85.0856,-126.298 -64.3028,-126.298 C-43.52,-126.298 -26.6958,-109.474 -26.6958,-88.6912 C-26.6958,-67.9084 -43.52,-51.0842 -64.3028,-51.0842 Z" fill="#4d4d4d" fill-opacity="1" />
	</g>
</svg>